<svg xmlns="http://www.w3.org/2000/svg" width="401" height="376" viewBox="0 0 401 376">
<g fill="black" stroke="none">
<path d="M 45.0,32.5 L 44.5,31.0 L 45.5,30.0 L 46.5,29.0 L 47.5,29.0 L 47.0,30.5 L 46.0,31.5 L 45.0,32.5 Z"/>
<path d="M 0.0,145.5 L 0.5,144.0 L 0.5,142.0 L 0.5,140.0 L 1.0,138.5 L 1.5,137.0 L 1.5,135.0 L 1.5,133.0 L 1.5,131.0 L 2.5,130.0 L 1.5,129.0 L 2.0,127.5 L 2.5,126.0 L 3.5,125.0 L 3.5,123.0 L 3.5,121.0 L 4.5,120.0 L 4.5,118.0 L 4.5,116.0 L 5.0,114.5 L 5.5,113.0 L 6.0,111.5 L 6.5,110.0 L 6.5,108.0 L 7.5,107.0 L 7.5,105.0 L 8.0,103.5 L 8.0,102.5 L 8.0,101.5 L 9.5,101.0 L 9.5,99.0 L 9.5,97.0 L 10.5,96.0 L 11.5,95.0 L 11.5,93.0 L 12.0,91.5 L 12.5,90.0 L 13.5,89.0 L 14.0,87.5 L 14.5,86.0 L 14.5,84.0 L 15.5,83.0 L 15.5,81.0 L 16.0,79.5 L 17.5,79.0 L 17.5,77.0 L 18.0,75.5 L 19.5,75.0 L 20.5,74.0 L 21.0,72.5 L 21.5,71.0 L 21.5,69.0 L 22.0,67.5 L 22.5,66.0 L 23.5,65.0 L 24.5,64.0 L 25.0,62.5 L 25.5,61.0 L 26.5,60.0 L 27.0,58.5 L 28.0,57.5 L 29.0,56.5 L 29.5,55.0 L 30.5,55.0 L 30.5,57.0 L 29.5,58.0 L 29.0,59.5 L 28.5,61.0 L 27.5,62.0 L 26.5,63.0 L 26.5,65.0 L 25.5,66.0 L 25.0,67.5 L 24.5,69.0 L 23.5,70.0 L 23.0,71.5 L 22.5,73.0 L 21.5,74.0 L 21.5,76.0 L 20.5,77.0 L 20.0,78.5 L 19.5,80.0 L 19.0,81.5 L 18.5,83.0 L 18.0,84.5 L 17.5,86.0 L 17.0,87.5 L 16.5,89.0 L 16.0,90.5 L 15.5,92.0 L 15.0,93.5 L 14.5,95.0 L 14.0,96.5 L 13.5,98.0 L 13.5,100.0 L 12.5,101.0 L 12.5,103.0 L 11.5,104.0 L 11.5,106.0 L 11.0,107.5 L 10.5,109.0 L 10.5,111.0 L 10.0,112.5 L 9.5,114.0 L 9.5,116.0 L 9.0,117.5 L 8.5,119.0 L 8.5,121.0 L 8.0,122.5 L 7.5,124.0 L 7.5,126.0 L 7.5,128.0 L 7.0,129.5 L 6.5,131.0 L 6.5,133.0 L 6.5,135.0 L 6.5,137.0 L 5.5,138.0 L 5.5,140.0 L 5.5,142.0 L 5.5,144.0 L 5.5,146.0 L 5.5,148.0 L 5.5,150.0 L 5.5,152.0 L 5.5,154.0 L 5.5,156.0 L 5.5,158.0 L 5.5,160.0 L 5.5,162.0 L 5.5,164.0 L 5.5,166.0 L 5.5,168.0 L 5.5,170.0 L 5.5,172.0 L 5.5,174.0 L 5.5,176.0 L 6.5,177.0 L 6.5,179.0 L 6.5,181.0 L 6.5,183.0 L 7.0,184.5 L 7.5,186.0 L 7.5,188.0 L 7.5,190.0 L 8.5,191.0 L 8.5,193.0 L 8.5,195.0 L 9.0,196.5 L 9.5,198.0 L 9.5,200.0 L 10.0,201.5 L 10.5,203.0 L 10.5,205.0 L 11.5,206.0 L 11.5,208.0 L 12.0,209.5 L 12.5,211.0 L 12.5,213.0 L 13.5,214.0 L 13.5,216.0 L 14.5,217.0 L 14.5,219.0 L 15.5,220.0 L 15.5,222.0 L 16.5,223.0 L 16.5,225.0 L 17.5,226.0 L 17.5,228.0 L 18.5,229.0 L 18.5,231.0 L 19.5,232.0 L 19.5,234.0 L 20.5,235.0 L 21.0,236.5 L 21.5,238.0 L 22.5,239.0 L 22.5,241.0 L 23.5,242.0 L 24.0,243.5 L 24.5,245.0 L 25.5,246.0 L 26.0,247.5 L 26.5,249.0 L 27.5,250.0 L 28.0,251.5 L 28.5,253.0 L 29.5,254.0 L 30.0,255.5 L 30.5,257.0 L 31.5,258.0 L 32.0,259.5 L 33.0,260.5 L 33.5,262.0 L 34.5,262.0 L 34.5,260.0 L 34.5,258.0 L 34.5,256.0 L 35.5,255.0 L 35.5,253.0 L 35.5,251.0 L 35.5,249.0 L 36.0,247.5 L 36.5,246.0 L 36.5,244.0 L 36.5,242.0 L 36.5,240.0 L 37.5,239.0 L 37.5,237.0 L 37.5,235.0 L 37.5,233.0 L 38.0,231.5 L 38.5,230.0 L 38.5,228.0 L 38.5,226.0 L 38.5,224.0 L 38.5,222.0 L 39.5,221.0 L 39.5,219.0 L 39.5,217.0 L 39.5,215.0 L 40.0,213.5 L 40.5,212.0 L 40.5,210.0 L 41.0,208.5 L 42.0,207.5 L 44.0,207.5 L 46.0,207.5 L 48.0,207.5 L 50.0,207.5 L 51.0,208.5 L 51.5,207.0 L 52.0,205.5 L 52.5,204.0 L 52.5,202.0 L 52.5,200.0 L 53.5,199.0 L 53.5,197.0 L 54.0,195.5 L 54.5,194.0 L 55.0,192.5 L 55.5,191.0 L 56.0,189.5 L 57.0,188.5 L 57.5,187.0 L 57.5,185.0 L 57.5,183.0 L 57.5,181.0 L 58.5,180.0 L 58.5,178.0 L 59.5,177.0 L 60.5,176.0 L 61.0,174.5 L 62.0,173.5 L 62.5,172.0 L 63.5,171.0 L 64.5,170.0 L 66.0,169.5 L 67.0,168.5 L 68.0,167.5 L 69.5,167.0 L 71.0,166.5 L 72.0,165.5 L 73.5,165.0 L 75.0,164.5 L 77.0,164.5 L 79.0,164.5 L 80.0,163.5 L 82.0,163.5 L 83.5,164.0 L 85.0,164.5 L 87.0,164.5 L 88.5,165.0 L 90.0,165.5 L 91.5,166.0 L 93.0,166.5 L 94.0,167.5 L 95.0,168.5 L 96.5,169.0 L 97.5,170.0 L 98.5,171.0 L 99.5,172.0 L 100.5,173.0 L 101.0,174.5 L 102.0,175.5 L 102.5,177.0 L 103.5,178.0 L 104.0,179.5 L 105.0,180.5 L 106.5,181.0 L 108.0,181.5 L 109.5,182.0 L 110.5,182.0 L 109.5,181.0 L 108.0,180.5 L 106.5,180.0 L 108.0,179.5 L 110.0,179.5 L 112.0,179.5 L 112.0,180.5 L 112.0,181.5 L 113.0,180.5 L 114.5,180.0 L 114.0,178.5 L 113.5,177.0 L 114.0,175.5 L 114.5,177.0 L 115.5,177.0 L 115.5,175.0 L 115.0,173.5 L 114.0,172.5 L 114.0,171.5 L 114.0,170.5 L 113.0,169.5 L 112.0,168.5 L 112.0,167.5 L 114.0,167.5 L 115.5,168.0 L 115.5,170.0 L 116.0,171.5 L 116.5,170.0 L 117.0,168.5 L 117.5,167.0 L 116.0,166.5 L 114.0,166.5 L 112.0,166.5 L 110.0,166.5 L 108.0,166.5 L 106.5,166.0 L 105.5,165.0 L 104.5,164.0 L 104.5,162.0 L 105.5,161.0 L 106.5,160.0 L 108.0,159.5 L 110.0,159.5 L 112.0,159.5 L 114.0,159.5 L 116.0,159.5 L 118.0,159.5 L 118.5,158.0 L 117.5,158.0 L 116.0,158.5 L 114.5,158.0 L 115.5,157.0 L 116.5,156.0 L 117.0,154.5 L 118.5,155.0 L 119.0,156.5 L 119.5,155.0 L 119.0,153.5 L 119.0,152.5 L 120.5,152.0 L 121.0,150.5 L 121.5,149.0 L 121.5,147.0 L 122.5,146.0 L 123.0,144.5 L 123.5,143.0 L 124.0,141.5 L 124.5,140.0 L 125.5,139.0 L 125.5,137.0 L 126.5,136.0 L 127.5,135.0 L 128.0,133.5 L 128.5,132.0 L 129.5,131.0 L 130.0,129.5 L 131.0,128.5 L 131.5,127.0 L 132.5,126.0 L 133.0,124.5 L 134.0,123.5 L 134.5,122.0 L 135.5,121.0 L 136.5,120.0 L 137.5,119.0 L 138.5,118.0 L 139.5,117.0 L 140.5,116.0 L 141.0,114.5 L 142.0,113.5 L 143.0,112.5 L 144.0,111.5 L 145.0,110.5 L 146.0,109.5 L 147.0,108.5 L 148.0,107.5 L 149.5,107.0 L 150.5,106.0 L 151.5,105.0 L 152.5,104.0 L 154.0,103.5 L 155.0,102.5 L 156.0,101.5 L 157.5,101.0 L 158.5,100.0 L 160.0,99.5 L 161.0,98.5 L 162.5,98.0 L 164.0,97.5 L 165.0,96.5 L 166.0,95.5 L 168.0,95.5 L 169.0,94.5 L 170.5,94.0 L 172.0,93.5 L 173.0,92.5 L 175.0,92.5 L 176.0,91.5 L 178.0,91.5 L 179.0,90.5 L 181.0,90.5 L 182.5,90.0 L 184.0,89.5 L 186.0,89.5 L 187.5,89.0 L 189.0,88.5 L 191.0,88.5 L 191.0,87.5 L 190.0,86.5 L 189.5,85.0 L 188.5,84.0 L 188.0,82.5 L 187.5,81.0 L 186.5,80.0 L 186.0,78.5 L 185.0,77.5 L 184.0,76.5 L 183.0,75.5 L 182.0,74.5 L 181.5,73.0 L 181.5,71.0 L 182.5,70.0 L 184.0,69.5 L 185.0,68.5 L 186.0,69.5 L 187.0,70.5 L 188.5,71.0 L 189.5,72.0 L 190.5,73.0 L 191.5,74.0 L 192.5,74.0 L 193.0,72.5 L 194.0,71.5 L 195.0,72.5 L 196.5,73.0 L 196.5,75.0 L 196.0,76.5 L 195.0,77.5 L 194.0,76.5 L 193.5,78.0 L 194.5,79.0 L 195.5,80.0 L 196.0,81.5 L 196.5,80.0 L 196.5,78.0 L 197.5,77.0 L 197.5,75.0 L 197.5,73.0 L 197.5,71.0 L 197.5,69.0 L 198.0,67.5 L 198.5,66.0 L 198.5,64.0 L 198.5,62.0 L 199.5,61.0 L 201.0,60.5 L 203.0,60.5 L 204.0,61.5 L 204.5,63.0 L 204.5,65.0 L 204.5,67.0 L 204.5,69.0 L 204.5,71.0 L 204.5,73.0 L 204.5,75.0 L 204.5,77.0 L 204.5,79.0 L 204.5,81.0 L 203.5,82.0 L 204.5,82.0 L 205.5,81.0 L 206.0,79.5 L 207.0,78.5 L 207.5,77.0 L 208.5,76.0 L 209.5,75.0 L 210.5,74.0 L 211.5,73.0 L 212.5,72.0 L 213.5,71.0 L 214.5,70.0 L 216.0,69.5 L 217.0,68.5 L 218.0,69.5 L 219.5,70.0 L 220.5,71.0 L 220.5,73.0 L 220.0,74.5 L 219.0,75.5 L 218.0,76.5 L 217.0,77.5 L 216.0,78.5 L 215.0,79.5 L 214.0,80.5 L 213.5,82.0 L 212.5,83.0 L 212.0,84.5 L 211.5,86.0 L 210.5,87.0 L 209.5,88.0 L 211.0,88.5 L 212.5,89.0 L 214.0,89.5 L 216.0,89.5 L 218.0,89.5 L 219.0,90.5 L 221.0,90.5 L 222.5,91.0 L 224.0,91.5 L 225.5,92.0 L 227.0,92.5 L 228.0,93.5 L 230.0,93.5 L 231.0,94.5 L 232.5,95.0 L 234.0,95.5 L 235.0,96.5 L 236.5,97.0 L 238.0,97.5 L 239.0,98.5 L 240.5,99.0 L 242.0,99.5 L 243.0,100.5 L 244.0,101.5 L 245.5,102.0 L 246.5,103.0 L 247.5,104.0 L 249.0,104.5 L 250.0,105.5 L 251.0,106.5 L 252.0,107.5 L 253.0,108.5 L 254.0,109.5 L 255.0,110.5 L 256.0,111.5 L 257.0,112.5 L 258.0,113.5 L 259.0,114.5 L 260.0,115.5 L 261.0,116.5 L 262.0,117.5 L 263.0,118.5 L 264.0,119.5 L 264.5,121.0 L 265.5,122.0 L 266.5,123.0 L 267.0,124.5 L 268.0,125.5 L 268.5,127.0 L 269.5,128.0 L 270.5,129.0 L 271.0,130.5 L 271.5,132.0 L 272.5,133.0 L 273.0,134.5 L 273.5,136.0 L 274.5,137.0 L 275.0,138.5 L 275.5,140.0 L 276.5,141.0 L 276.5,143.0 L 277.5,144.0 L 277.5,146.0 L 278.5,147.0 L 278.5,149.0 L 279.5,150.0 L 279.5,152.0 L 280.5,153.0 L 280.5,155.0 L 281.0,156.5 L 281.5,158.0 L 282.0,159.5 L 284.0,159.5 L 286.0,159.5 L 288.0,159.5 L 290.0,159.5 L 292.0,159.5 L 293.5,160.0 L 294.5,161.0 L 295.5,162.0 L 295.5,164.0 L 294.5,165.0 L 293.5,166.0 L 292.0,166.5 L 290.0,166.5 L 288.0,166.5 L 286.0,166.5 L 284.0,166.5 L 282.5,167.0 L 284.0,167.5 L 286.0,167.5 L 287.5,168.0 L 286.5,169.0 L 285.0,169.5 L 284.0,168.5 L 283.5,170.0 L 283.5,172.0 L 284.0,173.5 L 284.5,175.0 L 284.5,177.0 L 285.0,178.5 L 287.0,178.5 L 287.0,179.5 L 285.5,180.0 L 287.0,180.5 L 288.0,181.5 L 290.0,181.5 L 292.0,181.5 L 294.0,181.5 L 295.0,180.5 L 295.5,179.0 L 296.0,177.5 L 297.0,176.5 L 297.5,175.0 L 298.5,174.0 L 299.5,173.0 L 300.5,172.0 L 301.5,171.0 L 302.5,170.0 L 303.5,169.0 L 304.5,168.0 L 306.0,167.5 L 307.0,166.5 L 308.5,166.0 L 310.0,165.5 L 311.0,164.5 L 313.0,164.5 L 315.0,164.5 L 316.0,163.5 L 318.0,163.5 L 319.5,164.0 L 321.0,164.5 L 323.0,164.5 L 324.5,165.0 L 326.0,165.5 L 327.5,166.0 L 329.0,166.5 L 330.0,167.5 L 331.5,168.0 L 332.5,169.0 L 334.0,169.5 L 335.0,170.5 L 336.0,171.5 L 336.5,173.0 L 337.5,174.0 L 338.5,175.0 L 339.5,176.0 L 340.0,177.5 L 340.5,179.0 L 341.5,180.0 L 341.5,182.0 L 342.0,183.5 L 342.5,185.0 L 342.5,187.0 L 342.5,189.0 L 343.0,190.5 L 343.5,192.0 L 344.5,193.0 L 344.5,195.0 L 345.5,196.0 L 345.5,198.0 L 345.5,200.0 L 346.5,201.0 L 346.5,203.0 L 346.5,205.0 L 347.0,206.5 L 348.0,207.5 L 350.0,207.5 L 350.5,206.0 L 352.0,205.5 L 352.0,206.5 L 352.0,207.5 L 354.0,207.5 L 356.0,207.5 L 357.5,208.0 L 358.5,209.0 L 358.5,211.0 L 358.5,213.0 L 359.0,214.5 L 359.5,216.0 L 359.5,218.0 L 359.5,220.0 L 359.5,222.0 L 360.5,223.0 L 360.5,225.0 L 360.5,227.0 L 360.5,229.0 L 360.5,231.0 L 361.5,232.0 L 361.5,234.0 L 361.5,236.0 L 361.5,238.0 L 362.0,239.5 L 362.5,241.0 L 362.5,243.0 L 362.5,245.0 L 363.0,246.5 L 363.5,248.0 L 363.5,250.0 L 363.5,252.0 L 363.5,254.0 L 363.5,256.0 L 364.0,257.5 L 364.5,259.0 L 364.5,261.0 L 365.0,262.5 L 365.5,261.0 L 366.5,260.0 L 367.0,258.5 L 368.0,257.5 L 369.0,256.5 L 369.5,255.0 L 370.5,254.0 L 371.0,252.5 L 371.5,251.0 L 372.0,249.5 L 372.5,248.0 L 373.5,247.0 L 374.0,245.5 L 374.5,244.0 L 375.5,243.0 L 376.0,241.5 L 376.5,240.0 L 377.0,238.5 L 377.5,237.0 L 378.5,236.0 L 378.5,234.0 L 379.5,233.0 L 380.0,231.5 L 380.5,230.0 L 381.0,228.5 L 381.5,227.0 L 382.0,225.5 L 382.5,224.0 L 383.0,222.5 L 383.5,221.0 L 384.0,219.5 L 384.5,218.0 L 385.0,216.5 L 385.5,215.0 L 385.5,213.0 L 386.5,212.0 L 386.5,210.0 L 387.0,208.5 L 387.5,207.0 L 387.5,205.0 L 388.5,204.0 L 388.5,202.0 L 389.0,200.5 L 389.5,199.0 L 389.5,197.0 L 390.0,195.5 L 390.5,194.0 L 390.5,192.0 L 390.5,190.0 L 391.5,189.0 L 391.5,187.0 L 391.5,185.0 L 392.0,183.5 L 392.5,182.0 L 392.5,180.0 L 392.5,178.0 L 392.5,176.0 L 392.5,174.0 L 393.5,173.0 L 393.5,171.0 L 393.5,169.0 L 393.5,167.0 L 393.5,165.0 L 393.5,163.0 L 393.5,161.0 L 393.5,159.0 L 393.5,157.0 L 393.5,155.0 L 393.5,153.0 L 393.5,151.0 L 393.5,149.0 L 393.5,147.0 L 393.5,145.0 L 393.5,143.0 L 393.5,141.0 L 393.5,139.0 L 392.5,138.0 L 392.5,136.0 L 392.5,134.0 L 392.5,132.0 L 392.0,130.5 L 391.5,129.0 L 391.5,127.0 L 391.5,125.0 L 391.0,123.5 L 390.5,122.0 L 390.5,120.0 L 390.5,118.0 L 390.0,116.5 L 389.5,115.0 L 389.5,113.0 L 389.0,111.5 L 388.5,110.0 L 388.5,108.0 L 388.0,106.5 L 387.5,105.0 L 387.5,103.0 L 386.5,102.0 L 386.5,100.0 L 385.5,99.0 L 385.5,97.0 L 385.0,95.5 L 384.5,94.0 L 384.0,92.5 L 383.5,91.0 L 383.0,89.5 L 382.5,88.0 L 382.0,86.5 L 381.5,85.0 L 381.0,83.5 L 380.5,82.0 L 380.0,80.5 L 379.5,79.0 L 378.5,78.0 L 378.0,76.5 L 377.5,75.0 L 377.0,73.5 L 376.5,72.0 L 375.5,71.0 L 375.0,69.5 L 374.5,68.0 L 374.0,66.5 L 373.5,65.0 L 372.5,64.0 L 372.0,62.5 L 371.5,61.0 L 370.5,60.0 L 370.0,58.5 L 369.5,57.0 L 368.5,56.0 L 368.0,54.5 L 367.0,53.5 L 366.5,52.0 L 365.5,51.0 L 365.0,49.5 L 364.0,48.5 L 363.5,47.0 L 362.5,46.0 L 362.0,44.5 L 361.0,43.5 L 360.5,42.0 L 359.5,41.0 L 358.5,40.0 L 358.0,38.5 L 357.0,37.5 L 356.5,36.0 L 355.5,35.0 L 354.5,34.0 L 355.0,32.5 L 356.5,33.0 L 357.0,34.5 L 358.0,35.5 L 359.0,36.5 L 360.0,37.5 L 360.5,39.0 L 361.5,40.0 L 362.5,41.0 L 363.0,42.5 L 364.0,43.5 L 364.5,45.0 L 365.5,46.0 L 366.5,47.0 L 367.0,48.5 L 368.0,49.5 L 368.5,51.0 L 370.0,51.5 L 370.0,52.5 L 370.0,53.5 L 370.5,55.0 L 371.5,56.0 L 372.0,57.5 L 372.5,59.0 L 373.0,60.5 L 374.0,61.5 L 374.5,63.0 L 375.5,64.0 L 376.0,65.5 L 376.5,67.0 L 377.5,68.0 L 378.0,69.5 L 378.5,71.0 L 379.0,72.5 L 379.5,74.0 L 380.5,75.0 L 380.5,77.0 L 381.5,78.0 L 382.0,79.5 L 382.5,81.0 L 383.0,82.5 L 384.0,83.5 L 385.0,84.5 L 385.5,86.0 L 386.0,87.5 L 386.5,89.0 L 387.5,90.0 L 388.0,91.5 L 388.5,93.0 L 388.5,95.0 L 389.5,96.0 L 390.5,97.0 L 390.5,99.0 L 389.5,100.0 L 390.5,101.0 L 391.0,102.5 L 391.5,104.0 L 392.5,105.0 L 392.5,107.0 L 392.5,109.0 L 393.5,110.0 L 393.5,112.0 L 394.0,113.5 L 394.5,115.0 L 395.5,116.0 L 395.0,117.5 L 395.0,118.5 L 395.5,120.0 L 396.0,121.5 L 396.5,123.0 L 396.5,125.0 L 396.5,127.0 L 396.5,129.0 L 397.5,130.0 L 397.0,131.5 L 397.0,132.5 L 397.5,134.0 L 398.0,135.5 L 398.5,137.0 L 398.5,139.0 L 398.5,141.0 L 398.5,143.0 L 398.5,145.0 L 398.5,147.0 L 398.5,149.0 L 399.5,150.0 L 399.5,152.0 L 399.5,154.0 L 399.5,156.0 L 400.0,157.5 Z"/>
<path d="M 34.0,49.5 L 33.5,48.0 L 34.5,47.0 L 35.0,45.5 L 36.0,44.5 L 36.5,46.0 L 35.5,47.0 L 35.0,48.5 L 34.0,49.5 Z"/>
<path d="M 206.0,71.5 L 205.5,70.0 L 205.5,68.0 L 205.5,66.0 L 205.5,64.0 L 206.0,62.5 L 206.5,64.0 L 206.5,66.0 L 206.5,68.0 L 206.5,70.0 L 206.0,71.5 Z"/>
<path d="M 207.0,76.5 L 205.5,76.0 L 205.5,74.0 L 206.0,72.5 L 207.0,71.5 L 208.5,72.0 L 208.5,74.0 L 208.0,75.5 L 207.0,76.5 Z"/>
<path d="M 212.5,160.0 L 212.5,158.0 L 213.5,157.0 L 214.0,155.5 L 214.5,154.0 L 215.5,153.0 L 216.0,151.5 L 217.0,150.5 L 218.0,149.5 L 219.0,148.5 L 220.0,147.5 L 221.0,146.5 L 222.0,145.5 L 223.5,145.0 L 225.0,144.5 L 226.0,143.5 L 227.5,143.0 L 229.0,142.5 L 231.0,142.5 L 232.0,141.5 L 234.0,141.5 L 236.0,141.5 L 238.0,141.5 L 240.0,141.5 L 242.0,141.5 L 243.0,142.5 L 245.0,142.5 L 246.0,143.5 L 247.5,144.0 L 248.5,145.0 L 250.0,145.5 L 251.0,146.5 L 252.0,147.5 L 253.0,148.5 L 254.0,149.5 L 255.0,150.5 L 256.0,151.5 L 257.0,152.5 L 257.5,154.0 L 258.5,155.0 L 259.0,156.5 L 259.5,158.0 L 260.0,159.5 L 262.0,159.5 L 264.0,159.5 L 266.0,159.5 L 268.0,159.5 L 270.0,159.5 L 272.0,159.5 L 274.0,159.5 L 274.0,158.5 L 272.0,158.5 L 270.0,158.5 L 268.5,158.0 L 270.0,157.5 L 272.0,157.5 L 273.5,157.0 L 273.5,155.0 L 272.5,154.0 L 272.5,152.0 L 272.0,150.5 L 271.5,149.0 L 270.5,148.0 L 270.5,146.0 L 269.5,145.0 L 269.0,143.5 L 268.5,142.0 L 268.0,140.5 L 267.5,139.0 L 266.5,138.0 L 266.0,136.5 L 265.5,135.0 L 264.5,134.0 L 264.0,132.5 L 263.0,131.5 L 262.5,130.0 L 261.5,129.0 L 260.5,128.0 L 260.0,126.5 L 259.0,125.5 L 258.0,124.5 L 257.5,123.0 L 256.5,122.0 L 255.5,121.0 L 254.5,120.0 L 253.5,119.0 L 252.5,118.0 L 251.5,117.0 L 250.5,116.0 L 249.5,115.0 L 248.5,114.0 L 247.5,113.0 L 246.5,112.0 L 245.5,111.0 L 244.0,110.5 L 243.0,109.5 L 242.0,108.5 L 240.5,108.0 L 239.5,107.0 L 238.0,106.5 L 237.0,105.5 L 236.0,104.5 L 234.5,104.0 L 233.0,103.5 L 232.0,102.5 L 230.5,102.0 L 229.0,101.5 L 228.0,100.5 L 226.0,100.5 L 225.0,99.5 L 223.0,99.5 L 222.0,98.5 L 220.0,98.5 L 219.0,97.5 L 217.0,97.5 L 215.5,97.0 L 214.0,96.5 L 212.0,96.5 L 210.0,96.5 L 209.0,95.5 L 207.0,95.5 L 205.0,95.5 L 203.0,95.5 L 201.0,95.5 L 199.0,95.5 L 197.0,95.5 L 195.0,95.5 L 193.0,95.5 L 191.0,95.5 L 189.5,96.0 L 188.0,96.5 L 186.0,96.5 L 184.5,97.0 L 183.0,97.5 L 181.5,98.0 L 180.0,98.5 L 178.5,99.0 L 177.0,99.5 L 175.5,100.0 L 174.0,100.5 L 172.5,101.0 L 171.0,101.5 L 170.0,102.5 L 168.5,103.0 L 167.0,103.5 L 166.0,104.5 L 164.5,105.0 L 163.0,105.5 L 162.0,106.5 L 161.0,107.5 L 159.5,108.0 L 158.5,109.0 L 157.5,110.0 L 156.0,110.5 L 155.0,111.5 L 154.0,112.5 L 153.0,113.5 L 152.0,114.5 L 151.0,115.5 L 149.5,116.0 L 148.5,117.0 L 147.5,118.0 L 146.5,119.0 L 146.0,120.5 L 145.0,121.5 L 144.0,122.5 L 143.0,123.5 L 142.0,124.5 L 141.5,126.0 L 140.5,127.0 L 139.5,128.0 L 139.0,129.5 L 138.0,130.5 L 137.0,131.5 L 136.5,133.0 L 135.5,134.0 L 135.0,135.5 L 134.5,137.0 L 133.5,138.0 L 133.0,139.5 L 132.5,141.0 L 131.5,142.0 L 131.0,143.5 L 130.5,145.0 L 130.0,146.5 L 129.5,148.0 L 128.5,149.0 L 128.5,151.0 L 128.0,152.5 L 127.5,154.0 L 127.0,155.5 L 126.5,157.0 L 127.5,157.0 L 128.0,155.5 L 129.0,156.5 L 130.5,157.0 L 131.5,158.0 L 130.5,159.0 L 132.0,159.5 L 134.0,159.5 L 136.0,159.5 L 138.0,159.5 L 140.0,159.5 L 140.5,158.0 L 141.5,157.0 L 142.0,155.5 L 142.5,154.0 L 143.5,153.0 L 144.0,151.5 L 145.0,150.5 L 146.0,149.5 L 147.0,148.5 L 148.0,147.5 L 149.0,146.5 L 150.0,145.5 L 151.5,145.0 L 153.0,144.5 L 154.0,143.5 L 155.5,143.0 L 157.0,142.5 L 158.0,141.5 L 160.0,141.5 L 162.0,141.5 L 164.0,141.5 L 166.0,141.5 L 168.0,141.5 L 169.5,142.0 L 171.0,142.5 L 172.5,143.0 L 174.0,143.5 L 175.0,144.5 L 176.5,145.0 L 178.0,145.5 L 179.0,146.5 L 180.0,147.5 L 181.0,148.5 L 182.0,149.5 L 183.0,150.5 L 184.0,151.5 L 184.5,153.0 L 185.5,154.0 L 186.0,155.5 L 186.5,157.0 L 187.5,158.0 L 187.5,160.0 L 188.5,160.0 L 188.5,158.0 L 189.0,156.5 L 190.0,157.5 L 190.0,158.5 L 190.0,159.5 L 191.5,159.0 L 193.0,158.5 L 194.5,158.0 L 196.0,157.5 L 198.0,157.5 L 200.0,157.5 L 202.0,157.5 L 204.0,157.5 L 205.5,158.0 L 207.0,158.5 L 208.5,159.0 L 209.5,159.0 L 208.5,158.0 L 209.5,157.0 L 210.5,157.0 L 211.5,158.0 L 211.0,159.5 L 211.0,160.5 L 212.5,160.0 Z"/>
<path d="M 239.5,183.0 L 241.0,182.5 L 243.0,182.5 L 244.0,181.5 L 245.5,181.0 L 246.5,180.0 L 247.5,179.0 L 249.0,178.5 L 249.5,177.0 L 250.5,176.0 L 251.5,175.0 L 252.5,174.0 L 252.5,172.0 L 253.5,171.0 L 253.5,169.0 L 254.0,167.5 L 254.5,166.0 L 254.5,164.0 L 254.0,162.5 L 253.5,161.0 L 253.0,159.5 L 252.5,158.0 L 251.5,157.0 L 251.0,155.5 L 250.0,154.5 L 249.0,153.5 L 248.0,152.5 L 247.0,151.5 L 246.0,150.5 L 244.5,150.0 L 243.0,149.5 L 242.0,148.5 L 240.0,148.5 L 238.5,148.0 L 237.0,147.5 L 235.0,147.5 L 234.0,148.5 L 232.0,148.5 L 230.5,149.0 L 229.0,149.5 L 228.0,150.5 L 226.5,151.0 L 225.0,151.5 L 224.0,152.5 L 223.0,153.5 L 222.5,155.0 L 221.5,156.0 L 220.5,157.0 L 220.0,158.5 L 219.5,160.0 L 218.5,161.0 L 218.5,163.0 L 218.5,165.0 L 218.5,167.0 L 218.5,169.0 L 219.0,170.5 L 219.5,172.0 L 220.0,173.5 L 220.5,175.0 L 221.5,176.0 L 222.5,177.0 L 223.5,178.0 L 224.5,179.0 L 225.5,180.0 L 226.5,181.0 L 228.0,181.5 L 229.0,182.5 L 231.0,182.5 L 232.5,183.0 L 234.0,183.5 L 236.0,183.5 L 238.0,183.5 L 239.5,183.0 Z"/>
<path d="M 167.5,183.0 L 169.0,182.5 L 170.5,182.0 L 172.0,181.5 L 173.0,180.5 L 174.5,180.0 L 175.5,179.0 L 176.5,178.0 L 177.5,177.0 L 178.5,176.0 L 177.0,175.5 L 175.5,175.0 L 174.5,174.0 L 175.5,173.0 L 174.5,173.0 L 173.5,174.0 L 172.0,174.5 L 171.0,175.5 L 169.0,175.5 L 167.0,175.5 L 165.0,175.5 L 163.5,175.0 L 162.5,174.0 L 161.0,173.5 L 160.5,172.0 L 159.5,171.0 L 159.0,169.5 L 158.5,168.0 L 158.5,166.0 L 158.5,164.0 L 159.0,162.5 L 159.5,161.0 L 160.5,160.0 L 161.5,159.0 L 162.5,158.0 L 163.5,157.0 L 165.0,156.5 L 167.0,156.5 L 169.0,156.5 L 171.0,156.5 L 172.0,157.5 L 173.0,158.5 L 174.5,159.0 L 175.5,160.0 L 176.0,161.5 L 176.5,163.0 L 177.0,164.5 L 177.5,166.0 L 177.5,168.0 L 176.5,169.0 L 176.0,170.5 L 176.0,171.5 L 177.5,172.0 L 178.5,173.0 L 179.0,174.5 L 180.0,173.5 L 180.5,172.0 L 181.5,171.0 L 181.5,169.0 L 180.5,169.0 L 179.5,169.0 L 178.5,168.0 L 178.5,166.0 L 178.5,164.0 L 179.5,163.0 L 181.0,162.5 L 181.5,161.0 L 181.0,159.5 L 180.5,158.0 L 179.5,157.0 L 178.5,156.0 L 178.0,154.5 L 177.0,153.5 L 176.0,152.5 L 174.5,152.0 L 173.5,151.0 L 172.0,150.5 L 171.0,149.5 L 169.0,149.5 L 168.0,148.5 L 166.0,148.5 L 164.0,148.5 L 162.0,148.5 L 160.0,148.5 L 158.5,149.0 L 157.0,149.5 L 155.5,150.0 L 154.0,150.5 L 153.0,151.5 L 152.0,152.5 L 151.0,153.5 L 150.0,154.5 L 149.0,155.5 L 148.5,157.0 L 147.5,158.0 L 147.0,159.5 L 146.5,161.0 L 146.5,163.0 L 145.5,164.0 L 145.5,166.0 L 146.0,167.5 L 146.5,169.0 L 147.0,170.5 L 147.5,172.0 L 148.0,173.5 L 148.5,175.0 L 149.5,176.0 L 150.5,177.0 L 151.5,178.0 L 152.5,179.0 L 153.5,180.0 L 155.0,180.5 L 156.0,181.5 L 157.0,182.5 L 159.0,182.5 L 160.5,183.0 L 162.0,183.5 L 164.0,183.5 L 166.0,183.5 L 167.5,183.0 Z"/>
<path d="M 177.0,159.5 L 175.5,159.0 L 176.0,157.5 L 176.5,156.0 L 177.5,156.0 L 178.5,157.0 L 179.5,158.0 L 178.0,158.5 L 177.0,159.5 Z"/>
<path d="M 235.0,175.5 L 233.0,175.5 L 231.0,175.5 L 229.0,175.5 L 228.0,174.5 L 226.5,174.0 L 225.5,173.0 L 224.5,172.0 L 223.5,171.0 L 223.5,169.0 L 222.5,168.0 L 222.5,166.0 L 222.5,164.0 L 223.5,163.0 L 223.0,161.5 L 221.0,161.5 L 220.5,160.0 L 221.0,158.5 L 222.0,157.5 L 223.0,158.5 L 224.5,159.0 L 223.5,160.0 L 224.5,160.0 L 225.5,159.0 L 226.5,158.0 L 228.0,157.5 L 229.0,156.5 L 231.0,156.5 L 233.0,156.5 L 235.0,156.5 L 236.5,157.0 L 237.5,158.0 L 238.5,159.0 L 239.5,160.0 L 240.5,161.0 L 241.0,162.5 L 241.5,164.0 L 241.5,166.0 L 241.5,168.0 L 241.0,169.5 L 240.5,171.0 L 239.5,172.0 L 238.5,173.0 L 237.5,174.0 L 236.0,174.5 L 235.0,175.5 Z"/>
<path d="M 264.5,202.0 L 265.0,200.5 L 266.0,199.5 L 267.0,198.5 L 268.0,197.5 L 269.0,196.5 L 270.0,195.5 L 271.0,194.5 L 272.0,193.5 L 273.5,193.0 L 275.0,192.5 L 276.0,191.5 L 277.0,190.5 L 278.5,190.0 L 280.0,189.5 L 280.5,188.0 L 280.5,186.0 L 279.5,185.0 L 278.5,184.0 L 278.5,182.0 L 278.5,180.0 L 278.0,178.5 L 277.5,177.0 L 277.5,175.0 L 277.0,173.5 L 276.5,172.0 L 276.5,170.0 L 276.5,168.0 L 276.0,166.5 L 274.0,166.5 L 272.0,166.5 L 270.0,166.5 L 268.0,166.5 L 266.0,166.5 L 264.0,166.5 L 264.0,167.5 L 266.0,167.5 L 266.0,168.5 L 265.0,169.5 L 263.0,169.5 L 262.0,170.5 L 261.5,169.0 L 262.5,168.0 L 261.0,167.5 L 260.5,169.0 L 260.5,171.0 L 260.0,172.5 L 259.5,174.0 L 259.0,175.5 L 258.0,176.5 L 257.5,178.0 L 256.5,179.0 L 256.0,180.5 L 255.0,181.5 L 254.0,182.5 L 253.0,183.5 L 252.0,184.5 L 251.0,185.5 L 249.5,186.0 L 248.0,186.5 L 247.0,187.5 L 245.5,188.0 L 244.0,188.5 L 243.0,189.5 L 241.0,189.5 L 239.5,190.0 L 238.0,190.5 L 236.0,190.5 L 234.0,190.5 L 232.5,190.0 L 231.0,189.5 L 229.0,189.5 L 228.0,188.5 L 226.5,188.0 L 225.0,187.5 L 224.0,186.5 L 222.5,186.0 L 221.5,185.0 L 220.0,184.5 L 219.0,183.5 L 218.0,182.5 L 217.0,181.5 L 216.5,180.0 L 215.5,179.0 L 214.5,178.0 L 214.0,176.5 L 213.5,175.0 L 212.5,174.0 L 212.5,172.0 L 211.5,171.0 L 211.5,169.0 L 210.5,168.0 L 209.0,167.5 L 208.0,166.5 L 207.0,165.5 L 205.0,165.5 L 204.0,164.5 L 202.0,164.5 L 201.0,163.5 L 199.0,163.5 L 197.5,164.0 L 196.0,164.5 L 194.5,165.0 L 193.0,165.5 L 192.0,166.5 L 190.5,167.0 L 189.5,168.0 L 188.5,169.0 L 188.5,171.0 L 187.5,172.0 L 187.5,174.0 L 186.5,175.0 L 186.0,176.5 L 185.5,178.0 L 184.5,179.0 L 183.5,180.0 L 182.5,181.0 L 181.5,182.0 L 180.5,183.0 L 179.5,184.0 L 178.5,185.0 L 177.5,186.0 L 176.0,186.5 L 175.0,187.5 L 173.5,188.0 L 172.0,188.5 L 171.0,189.5 L 169.0,189.5 L 167.5,190.0 L 166.0,190.5 L 164.0,190.5 L 162.0,190.5 L 160.5,190.0 L 159.0,189.5 L 157.0,189.5 L 156.0,188.5 L 154.5,188.0 L 153.0,187.5 L 152.0,186.5 L 150.5,186.0 L 149.5,185.0 L 148.0,184.5 L 147.0,183.5 L 146.0,182.5 L 145.0,181.5 L 144.5,180.0 L 143.5,179.0 L 142.5,178.0 L 142.0,176.5 L 141.5,175.0 L 141.0,173.5 L 140.5,172.0 L 140.5,170.0 L 139.5,169.0 L 139.0,167.5 L 137.0,167.5 L 136.0,166.5 L 134.0,166.5 L 132.0,166.5 L 130.0,166.5 L 128.0,166.5 L 126.0,166.5 L 124.5,167.0 L 124.5,169.0 L 124.0,170.5 L 123.5,172.0 L 124.0,173.5 L 124.5,172.0 L 125.0,170.5 L 125.5,172.0 L 125.5,174.0 L 125.0,175.5 L 124.0,176.5 L 123.5,175.0 L 122.5,175.0 L 122.5,177.0 L 122.5,179.0 L 122.5,181.0 L 121.5,182.0 L 121.5,184.0 L 121.0,185.5 L 120.5,187.0 L 120.5,189.0 L 121.5,190.0 L 123.0,190.5 L 124.0,191.5 L 125.0,192.5 L 126.5,193.0 L 127.5,194.0 L 129.0,194.5 L 130.0,195.5 L 131.0,196.5 L 132.0,197.5 L 133.0,198.5 L 134.0,199.5 L 135.0,200.5 L 135.5,202.0 L 137.0,202.5 L 139.0,202.5 L 141.0,202.5 L 143.0,202.5 L 145.0,202.5 L 147.0,202.5 L 149.0,202.5 L 151.0,202.5 L 153.0,202.5 L 155.0,202.5 L 157.0,202.5 L 159.0,202.5 L 161.0,202.5 L 163.0,202.5 L 165.0,202.5 L 167.0,202.5 L 169.0,202.5 L 171.0,202.5 L 173.0,202.5 L 175.0,202.5 L 177.0,202.5 L 179.0,202.5 L 181.0,202.5 L 183.0,202.5 L 185.0,202.5 L 187.0,202.5 L 189.0,202.5 L 191.0,202.5 L 193.0,202.5 L 195.0,202.5 L 197.0,202.5 L 199.0,202.5 L 201.0,202.5 L 203.0,202.5 L 205.0,202.5 L 207.0,202.5 L 209.0,202.5 L 211.0,202.5 L 213.0,202.5 L 215.0,202.5 L 217.0,202.5 L 219.0,202.5 L 221.0,202.5 L 223.0,202.5 L 225.0,202.5 L 227.0,202.5 L 229.0,202.5 L 231.0,202.5 L 233.0,202.5 L 235.0,202.5 L 237.0,202.5 L 239.0,202.5 L 241.0,202.5 L 243.0,202.5 L 245.0,202.5 L 247.0,202.5 L 249.0,202.5 L 251.0,202.5 L 253.0,202.5 L 255.0,202.5 L 257.0,202.5 L 259.0,202.5 L 261.0,202.5 L 263.0,202.5 L 264.5,202.0 Z"/>
<path d="M 192.0,169.5 L 191.0,168.5 L 191.0,167.5 L 192.5,167.0 L 194.0,166.5 L 195.0,165.5 L 196.5,166.0 L 195.5,167.0 L 194.0,167.5 L 193.0,168.5 L 192.0,169.5 Z"/>
<path d="M 275.0,170.5 L 274.0,169.5 L 272.0,169.5 L 271.0,168.5 L 271.0,167.5 L 273.0,167.5 L 275.0,167.5 L 275.5,169.0 L 275.0,170.5 Z"/>
<path d="M 139.0,172.5 L 137.5,172.0 L 136.5,171.0 L 137.0,169.5 L 138.0,168.5 L 139.0,169.5 L 139.5,171.0 L 139.0,172.5 Z"/>
<path d="M 79.5,199.0 L 79.5,197.0 L 78.5,196.0 L 78.5,194.0 L 77.5,193.0 L 77.5,191.0 L 77.5,189.0 L 78.5,188.0 L 79.0,186.5 L 80.0,185.5 L 81.0,184.5 L 82.0,183.5 L 83.0,182.5 L 84.5,182.0 L 85.5,181.0 L 87.0,180.5 L 88.5,181.0 L 89.5,182.0 L 91.0,182.5 L 92.0,183.5 L 92.5,185.0 L 93.5,186.0 L 93.5,188.0 L 92.5,189.0 L 92.5,191.0 L 92.5,193.0 L 93.5,194.0 L 94.0,195.5 L 95.5,195.0 L 96.5,194.0 L 97.5,193.0 L 96.0,192.5 L 94.5,192.0 L 94.5,190.0 L 93.5,189.0 L 94.5,188.0 L 94.5,186.0 L 94.5,184.0 L 94.5,182.0 L 95.5,182.0 L 96.5,182.0 L 97.5,182.0 L 97.5,184.0 L 98.5,184.0 L 98.5,182.0 L 97.5,181.0 L 97.0,179.5 L 96.5,178.0 L 95.5,177.0 L 94.5,176.0 L 93.5,175.0 L 92.5,174.0 L 91.0,173.5 L 90.0,172.5 L 88.5,172.0 L 87.0,171.5 L 85.5,171.0 L 84.0,170.5 L 82.0,170.5 L 80.0,170.5 L 78.0,170.5 L 76.5,171.0 L 75.0,171.5 L 74.0,172.5 L 72.5,173.0 L 71.0,173.5 L 70.0,174.5 L 69.0,175.5 L 68.0,176.5 L 67.0,177.5 L 66.0,178.5 L 65.5,180.0 L 64.5,181.0 L 64.5,183.0 L 63.5,184.0 L 63.5,186.0 L 63.5,188.0 L 63.5,190.0 L 63.5,192.0 L 64.0,193.5 L 64.5,195.0 L 65.5,196.0 L 66.5,197.0 L 67.5,198.0 L 69.0,198.5 L 70.0,199.5 L 72.0,199.5 L 74.0,199.5 L 76.0,199.5 L 78.0,199.5 L 79.5,199.0 Z"/>
<path d="M 325.5,200.0 L 327.0,199.5 L 328.0,198.5 L 329.0,197.5 L 330.0,198.5 L 331.5,198.0 L 332.5,197.0 L 333.5,196.0 L 334.5,195.0 L 335.0,193.5 L 335.5,192.0 L 335.5,190.0 L 335.5,188.0 L 335.5,186.0 L 335.5,184.0 L 335.0,182.5 L 334.5,181.0 L 333.5,180.0 L 333.0,178.5 L 332.0,177.5 L 331.5,176.0 L 330.5,175.0 L 329.0,174.5 L 328.0,173.5 L 327.0,172.5 L 325.5,172.0 L 324.0,171.5 L 322.5,171.0 L 321.0,170.5 L 319.0,170.5 L 317.0,170.5 L 315.0,170.5 L 313.5,171.0 L 312.0,171.5 L 310.5,172.0 L 309.0,172.5 L 308.0,173.5 L 307.0,174.5 L 305.5,175.0 L 304.5,176.0 L 303.5,177.0 L 302.5,178.0 L 302.0,179.5 L 301.5,181.0 L 301.0,182.5 L 300.5,184.0 L 300.5,186.0 L 300.5,188.0 L 301.5,188.0 L 301.5,186.0 L 301.5,184.0 L 302.5,183.0 L 303.5,183.0 L 304.0,184.5 L 304.5,186.0 L 304.5,188.0 L 304.5,190.0 L 303.5,191.0 L 302.5,191.0 L 301.5,191.0 L 302.0,192.5 L 303.0,193.5 L 304.0,194.5 L 305.0,193.5 L 305.5,192.0 L 306.5,191.0 L 307.5,190.0 L 307.0,188.5 L 306.5,187.0 L 307.0,185.5 L 307.5,184.0 L 309.0,183.5 L 310.0,182.5 L 311.0,181.5 L 313.0,181.5 L 315.0,181.5 L 316.0,182.5 L 317.0,183.5 L 318.0,184.5 L 319.0,185.5 L 320.0,186.5 L 320.5,188.0 L 321.5,189.0 L 321.5,191.0 L 321.5,193.0 L 320.5,194.0 L 320.5,196.0 L 320.5,198.0 L 319.5,199.0 L 321.0,199.5 L 323.0,199.5 L 324.5,200.0 L 325.5,200.0 Z"/>
<path d="M 183.5,375.0 L 182.0,374.5 L 180.0,374.5 L 178.0,374.5 L 177.0,373.5 L 175.5,374.0 L 174.0,374.5 L 172.0,374.5 L 171.0,373.5 L 169.0,373.5 L 167.5,373.0 L 166.0,372.5 L 164.0,372.5 L 163.0,371.5 L 161.0,371.5 L 159.0,371.5 L 157.0,371.5 L 156.0,370.5 L 154.5,370.0 L 153.0,369.5 L 151.0,369.5 L 149.5,369.0 L 148.0,368.5 L 146.0,368.5 L 145.0,367.5 L 143.5,367.0 L 142.5,367.0 L 141.0,367.5 L 140.0,366.5 L 138.0,366.5 L 137.0,365.5 L 135.5,365.0 L 134.0,364.5 L 133.0,363.5 L 131.5,363.0 L 130.0,362.5 L 129.0,361.5 L 127.0,361.5 L 125.5,361.0 L 124.5,360.0 L 123.5,359.0 L 122.0,358.5 L 120.0,358.5 L 119.0,357.5 L 118.0,356.5 L 116.0,356.5 L 115.0,355.5 L 113.5,355.0 L 112.0,354.5 L 111.0,353.5 L 109.0,353.5 L 107.5,353.0 L 106.0,352.5 L 105.0,351.5 L 104.0,350.5 L 103.0,349.5 L 102.0,348.5 L 101.0,347.5 L 99.5,347.0 L 98.0,346.5 L 97.0,345.5 L 96.0,344.5 L 95.0,343.5 L 93.5,343.0 L 92.5,342.0 L 91.0,341.5 L 89.5,341.0 L 88.0,340.5 L 87.5,339.0 L 86.0,338.5 L 85.0,337.5 L 84.0,336.5 L 83.0,335.5 L 82.0,334.5 L 80.5,334.0 L 79.5,333.0 L 78.0,332.5 L 77.5,331.0 L 76.5,330.0 L 75.0,329.5 L 74.0,328.5 L 73.0,327.5 L 72.0,326.5 L 71.0,325.5 L 70.0,324.5 L 69.0,323.5 L 67.5,323.0 L 66.0,322.5 L 65.5,321.0 L 64.5,320.0 L 63.5,319.0 L 62.0,318.5 L 61.0,317.5 L 60.0,316.5 L 59.5,315.0 L 59.0,313.5 L 57.5,313.0 L 56.5,312.0 L 55.5,311.0 L 54.5,310.0 L 54.0,308.5 L 52.5,308.0 L 52.0,306.5 L 51.0,305.5 L 50.0,304.5 L 49.5,303.0 L 48.5,302.0 L 47.5,301.0 L 46.5,300.0 L 45.5,299.0 L 44.5,298.0 L 44.0,296.5 L 43.5,295.0 L 42.5,294.0 L 41.5,293.0 L 40.5,292.0 L 39.5,291.0 L 39.0,289.5 L 38.0,288.5 L 36.5,288.0 L 36.0,286.5 L 35.0,285.5 L 34.5,284.0 L 33.5,283.0 L 32.5,282.0 L 32.0,280.5 L 31.5,279.0 L 30.5,278.0 L 31.5,277.0 L 30.5,276.0 L 29.5,275.0 L 29.5,273.0 L 28.0,272.5 L 27.5,271.0 L 26.0,270.5 L 25.5,269.0 L 24.5,268.0 L 23.5,267.0 L 23.5,265.0 L 23.5,263.0 L 22.5,262.0 L 21.5,261.0 L 21.5,259.0 L 20.5,258.0 L 20.0,256.5 L 19.0,255.5 L 18.5,254.0 L 17.5,253.0 L 17.5,251.0 L 16.5,250.0 L 16.5,248.0 L 15.5,247.0 L 15.5,245.0 L 14.5,244.0 L 14.5,242.0 L 13.5,241.0 L 12.5,240.0 L 11.5,239.0 L 11.5,237.0 L 11.5,235.0 L 10.5,234.0 L 10.0,232.5 L 9.5,231.0 L 9.5,229.0 L 9.0,227.5 L 8.0,226.5 L 7.5,225.0 L 8.5,224.0 L 8.0,222.5 L 7.5,221.0 L 7.5,219.0 L 6.5,218.0 L 6.5,216.0 L 6.0,214.5 L 5.0,213.5 L 4.5,212.0 L 5.5,211.0 L 4.5,210.0 L 4.5,208.0 L 3.5,207.0 L 3.5,205.0 L 3.0,203.5 L 2.5,202.0 L 3.5,201.0 L 2.5,200.0 L 2.5,198.0 L 2.0,196.5 L 1.5,195.0 L 1.5,193.0 L 1.5,191.0 L 1.5,189.0 L 0.5,188.0 L 1.5,187.0 L 0.5,186.0 L 0.5,184.0 L 0.5,182.0 L 0.5,180.0 L 0.5,178.0 Z"/>
<path d="M 400.0,178.5 L 399.5,180.0 L 399.5,182.0 L 398.5,183.0 L 398.5,185.0 L 398.5,187.0 L 398.5,189.0 L 398.5,191.0 L 398.5,193.0 L 397.5,194.0 L 397.5,196.0 L 397.5,198.0 L 397.5,200.0 L 397.5,202.0 L 397.5,204.0 L 396.5,205.0 L 396.5,207.0 L 395.5,208.0 L 395.5,210.0 L 395.0,211.5 L 394.5,213.0 L 393.5,214.0 L 394.5,215.0 L 393.5,216.0 L 393.5,218.0 L 393.5,220.0 L 392.5,221.0 L 392.0,222.5 L 392.0,223.5 L 392.5,225.0 L 391.5,226.0 L 391.5,228.0 L 390.5,229.0 L 390.0,230.5 L 389.5,232.0 L 389.5,234.0 L 389.0,235.5 L 388.5,237.0 L 388.0,238.5 L 387.0,239.5 L 386.5,241.0 L 386.0,242.5 L 385.5,244.0 L 384.5,245.0 L 385.5,246.0 L 384.5,247.0 L 384.0,248.5 L 383.0,249.5 L 382.5,251.0 L 382.0,252.5 L 382.0,253.5 L 382.0,254.5 L 381.0,255.5 L 380.0,256.5 L 379.5,258.0 L 379.0,259.5 L 378.0,260.5 L 377.5,262.0 L 376.5,263.0 L 376.5,265.0 L 375.5,266.0 L 374.5,267.0 L 374.5,269.0 L 374.0,270.5 L 373.0,271.5 L 372.0,272.5 L 371.0,273.5 L 370.0,274.5 L 369.5,276.0 L 368.5,277.0 L 369.5,278.0 L 368.5,279.0 L 367.5,280.0 L 366.5,281.0 L 366.0,282.5 L 365.5,284.0 L 364.5,285.0 L 364.0,286.5 L 363.0,287.5 L 362.0,288.5 L 361.0,289.5 L 360.0,290.5 L 359.0,291.5 L 358.5,293.0 L 357.5,294.0 L 356.5,295.0 L 356.0,296.5 L 355.0,297.5 L 354.0,298.5 L 353.5,300.0 L 352.5,301.0 L 351.5,302.0 L 351.0,303.5 L 350.0,304.5 L 349.0,305.5 L 348.0,306.5 L 347.0,307.5 L 346.0,308.5 L 345.0,309.5 L 344.5,311.0 L 343.0,311.5 L 342.0,312.5 L 341.0,313.5 L 340.0,314.5 L 339.0,315.5 L 338.0,316.5 L 337.0,317.5 L 336.5,319.0 L 335.5,320.0 L 334.5,321.0 L 333.5,322.0 L 332.5,323.0 L 331.0,323.5 L 330.0,324.5 L 329.0,325.5 L 328.0,326.5 L 327.0,327.5 L 326.0,328.5 L 324.5,329.0 L 323.5,330.0 L 322.5,331.0 L 321.5,332.0 L 320.5,333.0 L 319.5,334.0 L 318.5,335.0 L 317.0,335.5 L 316.0,336.5 L 314.5,337.0 L 313.0,337.5 L 312.5,339.0 L 311.0,339.5 L 310.0,340.5 L 308.5,341.0 L 307.5,342.0 L 306.5,343.0 L 305.0,343.5 L 303.5,344.0 L 302.5,345.0 L 301.0,345.5 L 300.0,346.5 L 299.5,348.0 L 298.0,348.5 L 296.5,349.0 L 295.5,350.0 L 294.0,350.5 L 293.0,351.5 L 292.0,352.5 L 290.0,352.5 L 289.0,353.5 L 288.0,354.5 L 286.0,354.5 L 285.0,355.5 L 283.0,355.5 L 282.0,356.5 L 280.5,357.0 L 280.0,358.5 L 278.0,358.5 L 277.0,359.5 L 276.0,360.5 L 274.0,360.5 L 273.0,361.5 L 271.0,361.5 L 270.0,362.5 L 268.0,362.5 L 266.5,363.0 L 265.0,363.5 L 263.5,364.0 L 262.0,364.5 L 260.5,365.0 L 259.0,365.5 L 258.0,366.5 L 256.0,366.5 L 255.0,367.5 L 253.0,367.5 L 252.0,368.5 L 250.0,368.5 L 249.0,369.5 L 247.0,369.5 L 245.5,370.0 L 244.0,370.5 L 242.0,370.5 L 240.5,371.0 L 239.0,371.5 L 237.0,371.5 L 236.0,372.5 L 234.5,373.0 L 233.0,373.5 L 231.0,373.5 L 229.5,374.0 L 228.0,374.5 L 226.0,374.5 L 224.0,374.5 L 222.0,374.5 L 220.0,374.5 L 218.0,374.5 L 216.5,375.0 Z"/>
<path d="M 201.0,196.5 L 199.0,196.5 L 198.0,195.5 L 196.5,195.0 L 195.5,194.0 L 194.5,193.0 L 193.5,192.0 L 192.5,191.0 L 191.5,190.0 L 190.5,189.0 L 189.5,188.0 L 189.5,186.0 L 189.5,184.0 L 190.0,182.5 L 191.0,181.5 L 192.5,181.0 L 194.0,180.5 L 196.0,180.5 L 198.0,180.5 L 200.0,180.5 L 202.0,180.5 L 204.0,180.5 L 206.0,180.5 L 207.5,181.0 L 208.5,182.0 L 209.5,183.0 L 210.5,184.0 L 210.5,186.0 L 210.0,187.5 L 209.0,188.5 L 208.5,190.0 L 207.5,191.0 L 206.5,192.0 L 205.5,193.0 L 204.0,193.5 L 203.0,194.5 L 202.0,195.5 L 201.0,196.5 Z"/>
<path d="M 127.5,202.0 L 126.5,201.0 L 125.5,201.0 L 124.0,201.5 L 122.0,201.5 L 121.5,200.0 L 123.0,199.5 L 124.5,199.0 L 123.0,198.5 L 122.0,197.5 L 121.0,196.5 L 119.5,196.0 L 118.0,195.5 L 117.0,194.5 L 115.5,194.0 L 114.5,193.0 L 113.0,192.5 L 112.0,191.5 L 110.5,191.0 L 109.5,190.0 L 108.0,189.5 L 107.0,188.5 L 105.5,189.0 L 105.0,190.5 L 104.5,192.0 L 104.5,194.0 L 103.5,195.0 L 103.0,196.5 L 102.0,197.5 L 101.5,199.0 L 100.5,200.0 L 99.0,200.5 L 98.0,201.5 L 96.5,202.0 L 98.0,202.5 L 100.0,202.5 L 102.0,202.5 L 104.0,202.5 L 106.0,202.5 L 108.0,202.5 L 110.0,202.5 L 112.0,202.5 L 114.0,202.5 L 116.0,202.5 L 118.0,202.5 L 120.0,202.5 L 122.0,202.5 L 124.0,202.5 L 126.0,202.5 L 127.5,202.0 Z"/>
<path d="M 302.5,202.0 L 301.0,201.5 L 300.0,200.5 L 299.0,199.5 L 298.5,198.0 L 297.5,197.0 L 296.5,196.0 L 295.5,195.0 L 295.5,193.0 L 294.5,192.0 L 294.5,190.0 L 294.0,188.5 L 292.5,189.0 L 291.0,189.5 L 290.0,190.5 L 288.5,191.0 L 287.0,191.5 L 286.0,192.5 L 285.0,193.5 L 283.5,194.0 L 282.0,194.5 L 281.0,195.5 L 280.0,196.5 L 278.5,197.0 L 277.0,197.5 L 276.0,198.5 L 276.0,199.5 L 277.5,200.0 L 278.5,201.0 L 277.0,201.5 L 275.0,201.5 L 274.0,200.5 L 273.0,201.5 L 271.5,202.0 L 273.0,202.5 L 275.0,202.5 L 277.0,202.5 L 279.0,202.5 L 281.0,202.5 L 283.0,202.5 L 285.0,202.5 L 287.0,202.5 L 289.0,202.5 L 291.0,202.5 L 293.0,202.5 L 295.0,202.5 L 297.0,202.5 L 299.0,202.5 L 301.0,202.5 L 302.5,202.0 Z"/>
<path d="M 312.5,198.0 L 313.5,197.0 L 313.5,195.0 L 313.5,193.0 L 314.5,192.0 L 313.5,192.0 L 312.5,193.0 L 312.5,195.0 L 311.5,196.0 L 311.5,198.0 L 312.5,198.0 Z"/>
<path d="M 64.5,209.0 L 64.5,207.0 L 64.5,205.0 L 64.5,203.0 L 63.5,202.0 L 62.5,201.0 L 61.5,200.0 L 60.5,199.0 L 59.5,199.0 L 59.0,200.5 L 58.5,202.0 L 58.5,204.0 L 58.5,206.0 L 58.5,208.0 L 59.5,208.0 L 60.5,208.0 L 61.0,209.5 L 63.0,209.5 L 64.5,209.0 Z"/>
<path d="M 340.5,209.0 L 340.5,207.0 L 340.5,205.0 L 340.0,203.5 L 339.5,202.0 L 339.5,200.0 L 339.0,198.5 L 338.0,199.5 L 337.0,200.5 L 336.0,201.5 L 335.0,202.5 L 334.5,204.0 L 334.5,206.0 L 334.5,208.0 L 335.0,209.5 L 337.0,209.5 L 339.0,209.5 L 340.5,209.0 Z"/>
<path d="M 78.5,207.0 L 77.0,206.5 L 75.0,206.5 L 73.0,206.5 L 71.5,206.0 L 70.5,206.0 L 71.0,207.5 L 73.0,207.5 L 75.0,207.5 L 77.0,207.5 L 78.5,207.0 Z"/>
<path d="M 325.5,211.0 L 327.0,210.5 L 328.5,210.0 L 328.5,208.0 L 328.5,206.0 L 327.0,205.5 L 325.5,206.0 L 324.0,206.5 L 323.0,207.5 L 321.5,207.0 L 320.5,207.0 L 320.5,209.0 L 320.5,211.0 L 322.0,211.5 L 324.0,211.5 L 325.5,211.0 Z"/>
<path d="M 324.0,210.5 L 322.0,210.5 L 322.0,209.5 L 323.5,209.0 L 324.0,207.5 L 325.5,208.0 L 325.0,209.5 L 324.0,210.5 Z"/>
<path d="M 78.5,211.0 L 78.5,209.0 L 77.5,209.0 L 77.0,210.5 L 75.0,210.5 L 73.0,210.5 L 72.0,209.5 L 72.0,210.5 L 73.0,211.5 L 75.0,211.5 L 77.0,211.5 L 78.5,211.0 Z"/>
<path d="M 91.5,212.0 L 91.5,210.0 L 90.0,209.5 L 88.0,209.5 L 86.0,209.5 L 85.5,211.0 L 86.0,212.5 L 88.0,212.5 L 90.0,212.5 L 91.5,212.0 Z"/>
<path d="M 205.5,360.0 L 207.0,359.5 L 209.0,359.5 L 211.0,359.5 L 213.0,359.5 L 215.0,359.5 L 217.0,359.5 L 219.0,359.5 L 220.5,359.0 L 222.0,358.5 L 224.0,358.5 L 226.0,358.5 L 227.5,358.0 L 229.0,357.5 L 231.0,357.5 L 233.0,357.5 L 234.0,356.5 L 236.0,356.5 L 238.0,356.5 L 239.0,355.5 L 241.0,355.5 L 242.0,354.5 L 244.0,354.5 L 246.0,354.5 L 247.0,353.5 L 249.0,353.5 L 250.0,352.5 L 252.0,352.5 L 253.5,352.0 L 255.0,351.5 L 256.5,351.0 L 258.0,350.5 L 259.5,350.0 L 261.0,349.5 L 262.5,349.0 L 264.0,348.5 L 265.5,348.0 L 267.0,347.5 L 268.0,346.5 L 269.5,346.0 L 271.0,345.5 L 272.5,345.0 L 274.0,344.5 L 275.0,343.5 L 277.0,343.5 L 278.0,342.5 L 279.5,342.0 L 281.0,341.5 L 282.0,340.5 L 283.5,340.0 L 285.0,339.5 L 286.0,338.5 L 287.0,337.5 L 288.5,337.0 L 290.0,336.5 L 291.0,335.5 L 292.5,335.0 L 293.5,334.0 L 295.0,333.5 L 296.0,332.5 L 297.5,332.0 L 298.5,331.0 L 300.0,330.5 L 301.0,329.5 L 302.5,329.0 L 303.5,328.0 L 305.0,327.5 L 306.0,326.5 L 307.0,325.5 L 308.5,325.0 L 309.5,324.0 L 310.5,323.0 L 312.0,322.5 L 313.0,321.5 L 314.0,320.5 L 315.0,319.5 L 316.5,319.0 L 317.5,318.0 L 318.5,317.0 L 319.5,316.0 L 320.5,315.0 L 322.0,314.5 L 323.0,313.5 L 324.0,312.5 L 325.0,311.5 L 326.0,310.5 L 327.0,309.5 L 328.0,308.5 L 329.0,307.5 L 330.0,306.5 L 331.0,305.5 L 332.0,304.5 L 333.5,304.0 L 334.5,303.0 L 335.5,302.0 L 336.5,301.0 L 337.0,299.5 L 338.0,298.5 L 339.0,297.5 L 340.0,296.5 L 341.0,295.5 L 342.0,294.5 L 343.0,293.5 L 343.5,292.0 L 344.5,291.0 L 345.5,290.0 L 346.5,289.0 L 347.5,288.0 L 348.5,287.0 L 349.5,286.0 L 350.0,284.5 L 351.0,283.5 L 352.0,282.5 L 352.5,281.0 L 353.5,280.0 L 354.5,279.0 L 355.0,277.5 L 355.0,276.5 L 353.0,276.5 L 351.0,276.5 L 350.0,277.5 L 348.0,277.5 L 346.0,277.5 L 344.5,278.0 L 343.0,278.5 L 341.0,278.5 L 339.5,279.0 L 338.0,279.5 L 336.0,279.5 L 334.5,280.0 L 333.0,280.5 L 331.0,280.5 L 329.5,281.0 L 328.0,281.5 L 326.0,281.5 L 324.5,282.0 L 323.0,282.5 L 321.0,282.5 L 319.5,283.0 L 318.0,283.5 L 316.0,283.5 L 315.0,284.5 L 313.0,284.5 L 311.0,284.5 L 310.0,285.5 L 308.0,285.5 L 306.0,285.5 L 305.0,284.5 L 303.0,284.5 L 301.5,284.0 L 300.0,283.5 L 298.0,283.5 L 297.0,282.5 L 295.0,282.5 L 293.5,282.0 L 292.0,281.5 L 290.0,281.5 L 289.0,280.5 L 287.0,280.5 L 285.5,280.0 L 284.0,279.5 L 283.0,278.5 L 282.5,277.0 L 282.5,275.0 L 282.5,273.0 L 283.0,271.5 L 283.5,270.0 L 283.5,268.0 L 283.5,266.0 L 283.5,264.0 L 283.5,262.0 L 283.5,260.0 L 283.5,258.0 L 284.5,257.0 L 284.5,255.0 L 284.5,253.0 L 284.5,251.0 L 284.5,249.0 L 284.5,247.0 L 285.5,246.0 L 285.5,244.0 L 285.5,242.0 L 285.5,240.0 L 285.5,238.0 L 285.5,236.0 L 286.5,235.0 L 286.5,233.0 L 286.5,231.0 L 286.5,229.0 L 286.5,227.0 L 286.5,225.0 L 286.5,223.0 L 287.5,222.0 L 287.5,220.0 L 287.5,218.0 L 287.5,216.0 L 288.5,215.0 L 290.0,214.5 L 292.0,214.5 L 294.0,214.5 L 294.0,213.5 L 292.0,213.5 L 290.5,213.0 L 292.0,212.5 L 294.0,212.5 L 295.0,211.5 L 296.0,210.5 L 297.5,211.0 L 298.5,212.0 L 299.0,213.5 L 300.5,213.0 L 300.5,211.0 L 300.0,209.5 L 298.0,209.5 L 296.0,209.5 L 294.0,209.5 L 292.0,209.5 L 290.0,209.5 L 288.0,209.5 L 286.0,209.5 L 284.0,209.5 L 282.0,209.5 L 280.0,209.5 L 278.0,209.5 L 276.0,209.5 L 274.0,209.5 L 272.0,209.5 L 270.0,209.5 L 268.0,209.5 L 266.0,209.5 L 264.0,209.5 L 262.0,209.5 L 260.0,209.5 L 258.0,209.5 L 256.0,209.5 L 254.0,209.5 L 252.0,209.5 L 250.0,209.5 L 248.0,209.5 L 246.0,209.5 L 244.0,209.5 L 242.0,209.5 L 240.0,209.5 L 238.0,209.5 L 236.0,209.5 L 234.0,209.5 L 232.0,209.5 L 230.0,209.5 L 228.0,209.5 L 226.0,209.5 L 224.0,209.5 L 222.0,209.5 L 220.0,209.5 L 218.0,209.5 L 216.0,209.5 L 214.0,209.5 L 212.0,209.5 L 210.0,209.5 L 208.0,209.5 L 206.0,209.5 L 204.0,209.5 L 202.0,209.5 L 200.0,209.5 L 198.0,209.5 L 196.0,209.5 L 194.0,209.5 L 192.0,209.5 L 190.0,209.5 L 188.0,209.5 L 186.0,209.5 L 184.0,209.5 L 182.0,209.5 L 180.0,209.5 L 178.0,209.5 L 176.0,209.5 L 174.0,209.5 L 172.0,209.5 L 170.0,209.5 L 168.0,209.5 L 166.0,209.5 L 164.0,209.5 L 162.0,209.5 L 160.0,209.5 L 158.0,209.5 L 156.0,209.5 L 154.0,209.5 L 152.0,209.5 L 150.0,209.5 L 148.0,209.5 L 146.0,209.5 L 144.0,209.5 L 142.0,209.5 L 140.0,209.5 L 138.0,209.5 L 136.0,209.5 L 134.0,209.5 L 132.0,209.5 L 130.0,209.5 L 128.0,209.5 L 126.0,209.5 L 124.0,209.5 L 122.0,209.5 L 120.0,209.5 L 118.0,209.5 L 116.0,209.5 L 114.0,209.5 L 112.0,209.5 L 110.0,209.5 L 108.0,209.5 L 106.0,209.5 L 104.0,209.5 L 102.0,209.5 L 100.0,209.5 L 98.5,210.0 L 98.5,212.0 L 99.0,213.5 L 100.0,214.5 L 102.0,214.5 L 104.0,214.5 L 106.0,214.5 L 108.0,214.5 L 109.5,215.0 L 110.5,216.0 L 111.5,217.0 L 111.5,219.0 L 111.5,221.0 L 111.5,223.0 L 111.5,225.0 L 112.0,226.5 L 112.5,228.0 L 112.5,230.0 L 112.5,232.0 L 112.5,234.0 L 112.5,236.0 L 112.5,238.0 L 113.5,239.0 L 113.5,241.0 L 113.5,243.0 L 113.5,245.0 L 113.5,247.0 L 114.5,248.0 L 114.5,250.0 L 114.5,252.0 L 114.5,254.0 L 114.5,256.0 L 114.5,258.0 L 115.0,259.5 L 115.5,261.0 L 115.5,263.0 L 115.5,265.0 L 115.5,267.0 L 115.5,269.0 L 115.5,271.0 L 115.5,273.0 L 116.5,274.0 L 116.5,276.0 L 116.5,278.0 L 115.5,279.0 L 114.0,279.5 L 113.0,280.5 L 111.0,280.5 L 109.5,281.0 L 108.0,281.5 L 106.0,281.5 L 105.0,282.5 L 103.0,282.5 L 101.5,283.0 L 100.0,283.5 L 98.0,283.5 L 97.0,284.5 L 95.0,284.5 L 94.0,285.5 L 92.0,285.5 L 90.0,285.5 L 88.5,285.0 L 87.0,284.5 L 85.0,284.5 L 83.5,284.0 L 82.0,283.5 L 80.0,283.5 L 78.5,283.0 L 77.0,282.5 L 75.0,282.5 L 73.5,282.0 L 72.0,281.5 L 70.0,281.5 L 68.5,281.0 L 67.0,280.5 L 65.0,280.5 L 63.5,280.0 L 62.0,279.5 L 60.0,279.5 L 58.5,279.0 L 57.0,278.5 L 55.0,278.5 L 53.5,278.0 L 52.0,277.5 L 50.0,277.5 L 48.5,278.0 L 47.0,278.5 L 47.0,277.5 L 47.0,276.5 L 45.0,276.5 L 43.5,277.0 L 44.5,278.0 L 45.5,279.0 L 46.0,280.5 L 46.5,282.0 L 47.5,283.0 L 48.5,284.0 L 49.5,285.0 L 50.0,286.5 L 51.0,287.5 L 52.0,288.5 L 53.0,289.5 L 54.0,290.5 L 55.0,291.5 L 55.5,293.0 L 56.5,294.0 L 57.5,295.0 L 58.5,296.0 L 59.5,297.0 L 60.5,298.0 L 61.5,299.0 L 62.5,300.0 L 63.0,301.5 L 64.0,302.5 L 65.0,303.5 L 66.0,304.5 L 67.0,305.5 L 68.5,306.0 L 69.5,307.0 L 70.5,308.0 L 71.5,309.0 L 72.5,310.0 L 73.5,311.0 L 74.5,312.0 L 75.5,313.0 L 76.5,314.0 L 77.5,315.0 L 79.0,315.5 L 80.0,316.5 L 81.0,317.5 L 82.0,318.5 L 83.0,319.5 L 84.5,320.0 L 85.5,321.0 L 86.5,322.0 L 88.0,322.5 L 89.0,323.5 L 90.0,324.5 L 91.0,325.5 L 92.5,326.0 L 93.5,327.0 L 95.0,327.5 L 96.0,328.5 L 97.0,329.5 L 98.5,330.0 L 99.5,331.0 L 101.0,331.5 L 102.0,332.5 L 103.5,333.0 L 104.5,334.0 L 106.0,334.5 L 107.0,335.5 L 108.5,336.0 L 110.0,336.5 L 111.0,337.5 L 112.0,338.5 L 113.5,339.0 L 115.0,339.5 L 116.0,340.5 L 117.5,341.0 L 119.0,341.5 L 120.0,342.5 L 121.5,343.0 L 123.0,343.5 L 124.5,344.0 L 126.0,344.5 L 127.0,345.5 L 129.0,345.5 L 130.0,346.5 L 131.5,347.0 L 133.0,347.5 L 134.0,348.5 L 136.0,348.5 L 137.0,349.5 L 139.0,349.5 L 140.0,350.5 L 142.0,350.5 L 143.0,351.5 L 145.0,351.5 L 146.0,352.5 L 148.0,352.5 L 149.5,353.0 L 151.0,353.5 L 153.0,353.5 L 154.0,354.5 L 156.0,354.5 L 157.5,355.0 L 159.0,355.5 L 161.0,355.5 L 162.0,356.5 L 164.0,356.5 L 166.0,356.5 L 167.0,357.5 L 169.0,357.5 L 171.0,357.5 L 172.5,358.0 L 174.0,358.5 L 176.0,358.5 L 178.0,358.5 L 179.5,359.0 L 181.0,359.5 L 183.0,359.5 L 185.0,359.5 L 187.0,359.5 L 189.0,359.5 L 191.0,359.5 L 193.0,359.5 L 195.0,359.5 L 196.0,360.5 L 198.0,360.5 L 200.0,360.5 L 202.0,360.5 L 204.0,360.5 L 205.5,360.0 Z"/>
<path d="M 310.5,213.0 L 312.0,212.5 L 313.5,212.0 L 313.5,210.0 L 312.0,209.5 L 310.0,209.5 L 308.0,209.5 L 307.5,211.0 L 307.0,212.5 L 307.0,213.5 L 309.0,213.5 L 310.5,213.0 Z"/>
<path d="M 106.0,213.5 L 104.0,213.5 L 102.0,213.5 L 100.5,213.0 L 101.0,211.5 L 102.0,210.5 L 103.5,211.0 L 104.5,212.0 L 106.0,212.5 L 106.0,213.5 Z"/>
<path d="M 89.5,278.0 L 89.5,276.0 L 89.5,274.0 L 89.5,272.0 L 89.5,270.0 L 89.5,268.0 L 89.5,266.0 L 89.5,264.0 L 89.5,262.0 L 89.5,260.0 L 89.5,258.0 L 89.5,256.0 L 89.5,254.0 L 89.5,252.0 L 90.0,250.5 L 90.5,249.0 L 90.5,247.0 L 90.5,245.0 L 90.5,243.0 L 90.5,241.0 L 90.5,239.0 L 90.5,237.0 L 90.5,235.0 L 90.5,233.0 L 90.5,231.0 L 91.0,229.5 L 91.5,228.0 L 91.5,226.0 L 91.5,224.0 L 91.5,222.0 L 91.0,220.5 L 89.0,220.5 L 87.5,220.0 L 86.0,219.5 L 84.5,220.0 L 84.5,222.0 L 84.5,224.0 L 84.5,226.0 L 83.5,227.0 L 82.5,228.0 L 81.0,228.5 L 79.0,228.5 L 78.0,227.5 L 77.0,226.5 L 76.5,225.0 L 77.0,223.5 L 77.5,222.0 L 77.5,220.0 L 77.0,218.5 L 75.0,218.5 L 75.0,219.5 L 76.5,220.0 L 76.0,221.5 L 75.0,222.5 L 74.0,221.5 L 73.5,220.0 L 72.5,219.0 L 73.5,218.0 L 72.0,217.5 L 70.0,217.5 L 70.0,218.5 L 70.0,219.5 L 68.0,219.5 L 67.0,218.5 L 65.0,218.5 L 63.0,218.5 L 61.5,219.0 L 60.0,219.5 L 58.5,219.0 L 59.0,217.5 L 61.0,217.5 L 63.0,217.5 L 65.0,217.5 L 66.5,217.0 L 65.0,216.5 L 63.0,216.5 L 61.0,216.5 L 60.0,215.5 L 58.0,215.5 L 57.5,217.0 L 57.5,219.0 L 57.5,221.0 L 57.5,223.0 L 56.0,223.5 L 55.0,224.5 L 53.0,224.5 L 52.0,223.5 L 51.0,222.5 L 50.5,221.0 L 50.5,219.0 L 50.5,217.0 L 51.0,215.5 L 51.0,214.5 L 49.0,214.5 L 47.5,214.0 L 46.0,213.5 L 45.5,215.0 L 45.5,217.0 L 45.5,219.0 L 46.0,220.5 L 46.5,219.0 L 46.5,217.0 L 47.0,215.5 L 49.0,215.5 L 49.5,217.0 L 49.5,219.0 L 49.5,221.0 L 49.5,223.0 L 48.0,223.5 L 46.5,224.0 L 45.5,224.0 L 45.0,222.5 L 44.5,224.0 L 44.5,226.0 L 44.5,228.0 L 44.5,230.0 L 44.0,231.5 L 43.5,233.0 L 43.5,235.0 L 43.5,237.0 L 43.5,239.0 L 42.5,240.0 L 42.5,242.0 L 42.5,244.0 L 42.5,246.0 L 42.5,248.0 L 41.5,249.0 L 41.5,251.0 L 41.5,253.0 L 41.5,255.0 L 41.5,257.0 L 40.5,258.0 L 40.5,260.0 L 40.5,262.0 L 40.5,264.0 L 40.5,266.0 L 39.5,267.0 L 39.5,269.0 L 40.5,270.0 L 42.0,270.5 L 44.0,270.5 L 45.5,271.0 L 47.0,271.5 L 49.0,271.5 L 51.0,271.5 L 52.5,272.0 L 54.0,272.5 L 56.0,272.5 L 57.5,273.0 L 59.0,273.5 L 61.0,273.5 L 62.5,274.0 L 64.0,274.5 L 66.0,274.5 L 68.0,274.5 L 69.0,275.5 L 71.0,275.5 L 73.0,275.5 L 74.5,276.0 L 76.0,276.5 L 78.0,276.5 L 80.0,276.5 L 81.5,277.0 L 83.0,277.5 L 85.0,277.5 L 85.0,276.5 L 85.0,275.5 L 86.0,274.5 L 88.0,274.5 L 88.5,276.0 L 88.0,277.5 L 86.5,278.0 L 88.0,278.5 L 89.5,278.0 Z"/>
<path d="M 313.5,278.0 L 315.0,277.5 L 317.0,277.5 L 319.0,277.5 L 320.0,276.5 L 322.0,276.5 L 324.0,276.5 L 325.0,275.5 L 327.0,275.5 L 329.0,275.5 L 330.5,275.0 L 332.0,274.5 L 334.0,274.5 L 336.0,274.5 L 337.0,273.5 L 339.0,273.5 L 341.0,273.5 L 342.5,273.0 L 344.0,272.5 L 346.0,272.5 L 347.5,272.0 L 349.0,271.5 L 351.0,271.5 L 353.0,271.5 L 354.0,270.5 L 356.0,270.5 L 358.0,270.5 L 359.0,269.5 L 359.0,268.5 L 358.0,269.5 L 356.5,269.0 L 357.0,267.5 L 358.0,266.5 L 358.5,265.0 L 358.5,263.0 L 358.5,261.0 L 358.5,259.0 L 358.0,257.5 L 357.5,256.0 L 357.5,254.0 L 357.5,252.0 L 357.5,250.0 L 356.5,249.0 L 356.5,247.0 L 356.5,245.0 L 356.5,243.0 L 356.0,241.5 L 355.5,240.0 L 355.5,238.0 L 355.5,236.0 L 355.5,234.0 L 355.5,232.0 L 355.0,230.5 L 354.5,229.0 L 354.5,227.0 L 354.5,225.0 L 354.0,223.5 L 353.0,224.5 L 351.0,224.5 L 350.0,223.5 L 349.5,222.0 L 349.5,220.0 L 349.5,218.0 L 349.5,216.0 L 351.0,215.5 L 352.5,216.0 L 352.5,218.0 L 352.5,220.0 L 353.5,220.0 L 353.5,218.0 L 353.5,216.0 L 353.5,214.0 L 352.0,213.5 L 351.0,214.5 L 349.0,214.5 L 347.5,215.0 L 348.5,216.0 L 348.5,218.0 L 348.5,220.0 L 348.5,222.0 L 347.5,223.0 L 346.5,224.0 L 345.0,224.5 L 343.0,224.5 L 342.0,223.5 L 341.0,222.5 L 340.5,221.0 L 340.5,219.0 L 340.5,217.0 L 340.0,215.5 L 338.0,215.5 L 336.5,216.0 L 335.0,216.5 L 333.0,216.5 L 331.0,216.5 L 331.0,217.5 L 332.5,218.0 L 331.0,218.5 L 329.5,218.0 L 328.0,217.5 L 326.0,217.5 L 324.5,218.0 L 325.5,219.0 L 325.5,221.0 L 324.5,222.0 L 323.5,222.0 L 322.5,221.0 L 323.0,219.5 L 323.0,218.5 L 321.5,219.0 L 321.5,221.0 L 322.5,222.0 L 322.5,224.0 L 322.5,226.0 L 321.5,227.0 L 320.5,228.0 L 319.0,228.5 L 317.0,228.5 L 316.0,227.5 L 315.0,226.5 L 314.5,225.0 L 314.5,223.0 L 314.5,221.0 L 314.0,219.5 L 312.0,219.5 L 310.5,220.0 L 309.0,220.5 L 308.5,222.0 L 308.5,224.0 L 308.5,226.0 L 308.5,228.0 L 308.5,230.0 L 308.5,232.0 L 308.5,234.0 L 308.5,236.0 L 308.5,238.0 L 308.5,240.0 L 308.5,242.0 L 308.5,244.0 L 308.5,246.0 L 309.5,247.0 L 309.5,249.0 L 309.5,251.0 L 309.5,253.0 L 309.5,255.0 L 309.5,257.0 L 309.5,259.0 L 309.5,261.0 L 309.5,263.0 L 310.5,263.0 L 310.5,261.0 L 310.5,259.0 L 311.5,259.0 L 311.5,261.0 L 312.0,262.5 L 312.5,264.0 L 313.0,265.5 L 313.0,266.5 L 312.5,268.0 L 312.0,269.5 L 311.5,268.0 L 311.0,266.5 L 310.0,265.5 L 309.5,267.0 L 310.5,268.0 L 310.5,270.0 L 310.5,272.0 L 310.5,274.0 L 310.5,276.0 L 310.5,278.0 L 312.0,278.5 L 313.5,278.0 Z"/>
<path d="M 102.5,249.0 L 102.5,247.0 L 103.0,245.5 L 103.5,244.0 L 104.0,242.5 L 104.0,241.5 L 104.0,240.5 L 104.5,239.0 L 104.5,237.0 L 105.5,237.0 L 105.5,239.0 L 106.5,240.0 L 106.5,242.0 L 106.5,244.0 L 106.5,246.0 L 107.5,246.0 L 107.5,244.0 L 107.5,242.0 L 107.5,240.0 L 107.0,238.5 L 106.5,237.0 L 106.5,235.0 L 106.5,233.0 L 106.5,231.0 L 106.5,229.0 L 105.5,228.0 L 105.5,226.0 L 105.5,224.0 L 105.5,222.0 L 105.5,220.0 L 104.5,220.0 L 103.0,220.5 L 101.0,220.5 L 99.0,220.5 L 99.0,221.5 L 101.0,221.5 L 103.0,221.5 L 103.0,222.5 L 102.5,224.0 L 102.5,226.0 L 101.0,226.5 L 100.5,225.0 L 100.0,223.5 L 99.5,225.0 L 99.5,227.0 L 99.5,229.0 L 100.0,230.5 L 100.5,232.0 L 100.5,234.0 L 100.5,236.0 L 100.5,238.0 L 100.5,240.0 L 100.5,242.0 L 101.5,243.0 L 101.5,245.0 L 101.5,247.0 L 101.5,249.0 L 102.5,249.0 Z"/>
<path d="M 289.5,272.0 L 291.0,271.5 L 292.0,270.5 L 293.0,269.5 L 294.5,269.0 L 295.5,268.0 L 296.5,267.0 L 296.5,265.0 L 296.5,263.0 L 296.5,261.0 L 297.0,259.5 L 297.5,258.0 L 297.5,256.0 L 297.5,254.0 L 297.5,252.0 L 297.5,250.0 L 297.5,248.0 L 298.0,246.5 L 298.5,245.0 L 298.5,243.0 L 298.5,241.0 L 299.5,240.0 L 299.5,238.0 L 299.5,236.0 L 299.5,234.0 L 299.5,232.0 L 300.5,231.0 L 300.5,229.0 L 300.5,227.0 L 301.5,226.0 L 301.5,224.0 L 300.5,223.0 L 299.0,222.5 L 297.0,222.5 L 297.0,221.5 L 299.0,221.5 L 301.0,221.5 L 301.0,220.5 L 299.0,220.5 L 297.0,220.5 L 295.0,220.5 L 294.0,219.5 L 293.5,221.0 L 293.5,223.0 L 293.0,224.5 L 292.5,226.0 L 292.5,228.0 L 292.5,230.0 L 292.5,232.0 L 292.5,234.0 L 292.5,236.0 L 291.5,237.0 L 291.5,239.0 L 291.5,241.0 L 291.5,243.0 L 291.5,245.0 L 291.5,247.0 L 291.0,248.5 L 290.5,250.0 L 290.5,252.0 L 290.5,254.0 L 290.5,256.0 L 290.5,258.0 L 289.5,259.0 L 289.5,261.0 L 289.5,263.0 L 289.5,265.0 L 289.5,267.0 L 289.5,269.0 L 289.0,270.5 L 288.5,272.0 L 289.5,272.0 Z"/>
<path d="M 87.0,226.5 L 86.0,225.5 L 85.5,224.0 L 85.5,222.0 L 87.0,221.5 L 88.5,222.0 L 88.0,223.5 L 87.5,225.0 L 87.0,226.5 Z"/>
<path d="M 312.0,227.5 L 311.5,226.0 L 310.5,225.0 L 310.5,223.0 L 311.0,221.5 L 313.0,221.5 L 313.5,223.0 L 313.5,225.0 L 313.0,226.5 L 312.0,227.5 Z"/>
<path d="M 304.5,273.0 L 304.5,271.0 L 304.0,269.5 L 303.5,268.0 L 303.5,266.0 L 303.5,264.0 L 303.5,262.0 L 303.5,260.0 L 303.5,258.0 L 303.5,256.0 L 303.5,254.0 L 303.5,252.0 L 303.5,250.0 L 303.0,248.5 L 302.5,247.0 L 302.5,245.0 L 302.5,243.0 L 302.5,241.0 L 302.5,239.0 L 302.5,237.0 L 302.5,235.0 L 302.5,233.0 L 301.5,233.0 L 301.5,235.0 L 301.5,237.0 L 301.5,239.0 L 301.5,241.0 L 301.0,242.5 L 300.5,244.0 L 300.5,246.0 L 300.5,248.0 L 300.5,250.0 L 300.5,252.0 L 300.5,254.0 L 300.5,256.0 L 300.5,258.0 L 300.5,260.0 L 300.5,262.0 L 300.5,264.0 L 300.5,266.0 L 300.5,268.0 L 301.0,269.5 L 302.0,270.5 L 302.5,272.0 L 303.5,273.0 L 304.5,273.0 Z"/>
<path d="M 295.0,267.5 L 293.5,267.0 L 293.5,265.0 L 293.5,263.0 L 293.5,261.0 L 293.5,259.0 L 293.5,257.0 L 293.5,255.0 L 293.5,253.0 L 293.5,251.0 L 292.5,250.0 L 292.5,248.0 L 292.5,246.0 L 292.5,244.0 L 292.5,242.0 L 293.5,241.0 L 293.5,239.0 L 293.5,237.0 L 294.5,237.0 L 294.5,239.0 L 294.5,241.0 L 294.5,243.0 L 295.5,244.0 L 295.5,246.0 L 296.0,247.5 L 296.5,249.0 L 296.5,251.0 L 296.0,252.5 L 295.5,254.0 L 294.5,255.0 L 295.5,256.0 L 294.5,257.0 L 294.5,259.0 L 294.5,261.0 L 294.5,263.0 L 295.5,264.0 L 295.5,266.0 L 295.0,267.5 Z"/>
<path d="M 95.5,273.0 L 96.0,271.5 L 97.0,270.5 L 98.0,269.5 L 98.5,268.0 L 98.5,266.0 L 98.5,264.0 L 98.5,262.0 L 98.5,260.0 L 98.5,258.0 L 98.5,256.0 L 98.0,254.5 L 97.5,256.0 L 96.5,256.0 L 96.5,254.0 L 97.5,253.0 L 97.5,251.0 L 97.5,249.0 L 97.5,247.0 L 97.5,245.0 L 97.5,243.0 L 97.5,241.0 L 97.5,239.0 L 96.5,238.0 L 95.5,238.0 L 95.5,240.0 L 95.5,242.0 L 95.5,244.0 L 95.5,246.0 L 95.5,248.0 L 95.5,250.0 L 95.5,252.0 L 95.5,254.0 L 95.5,256.0 L 94.5,257.0 L 94.5,259.0 L 94.5,261.0 L 94.5,263.0 L 94.5,265.0 L 94.5,267.0 L 94.5,269.0 L 94.5,271.0 L 94.5,273.0 L 95.5,273.0 Z"/>
<path d="M 355.0,249.5 L 354.0,248.5 L 353.5,247.0 L 354.5,246.0 L 354.5,244.0 L 355.0,242.5 L 355.5,244.0 L 355.5,246.0 L 355.5,248.0 L 355.0,249.5 Z"/>
<path d="M 110.5,272.0 L 110.0,270.5 L 109.0,269.5 L 107.0,269.5 L 106.0,268.5 L 106.0,267.5 L 107.0,266.5 L 109.0,266.5 L 109.5,265.0 L 109.5,263.0 L 109.5,261.0 L 109.5,259.0 L 108.5,258.0 L 108.5,256.0 L 108.5,254.0 L 108.5,252.0 L 108.5,250.0 L 107.5,250.0 L 107.5,252.0 L 107.0,253.5 L 106.5,255.0 L 105.5,256.0 L 105.5,258.0 L 105.5,260.0 L 104.5,260.0 L 103.5,259.0 L 103.5,257.0 L 103.5,255.0 L 103.0,253.5 L 102.5,255.0 L 102.5,257.0 L 102.5,259.0 L 102.5,261.0 L 103.5,262.0 L 103.5,264.0 L 103.5,266.0 L 104.0,267.5 L 105.0,268.5 L 106.0,269.5 L 107.0,270.5 L 108.0,271.5 L 109.5,272.0 L 110.5,272.0 Z"/>
<path d="M 99.5,277.0 L 101.0,276.5 L 103.0,276.5 L 104.0,275.5 L 106.0,275.5 L 106.0,274.5 L 105.0,273.5 L 104.0,274.5 L 103.0,275.5 L 101.0,275.5 L 99.5,275.0 L 98.5,275.0 L 98.0,276.5 L 98.0,277.5 L 99.5,277.0 Z"/>
<path d="M 302.5,277.0 L 301.5,276.0 L 300.5,275.0 L 299.5,275.0 L 298.0,275.5 L 296.0,275.5 L 295.0,274.5 L 294.0,273.5 L 293.0,274.5 L 293.0,275.5 L 295.0,275.5 L 296.0,276.5 L 298.0,276.5 L 300.0,276.5 L 301.0,277.5 L 302.5,277.0 Z"/>
<path d="M 205.5,375.0 L 204.0,374.5 L 202.0,374.5 L 200.0,374.5 L 198.0,374.5 L 196.0,374.5 L 194.0,374.5 L 192.0,374.5 L 190.0,374.5 Z"/>
</g></svg>